<svg version="1.0" xmlns="http://www.w3.org/2000/svg" width="790.000000pt" height="386.000000pt"
    viewBox="0 0 790.000000 386.000000" preserveAspectRatio="xMidYMid meet">

    <g transform="translate(0.000000,386.000000) scale(0.100000,-0.100000)" fill="#000000" stroke="none">
        <path d="M6200 3053 c-18 -10 -63 -44 -97 -77 -86 -79 -112 -138 -239 -523
-116 -353 -112 -347 -235 -428 -131 -88 -232 -112 -190 -46 12 19 -6 69 -29
81 -13 7 -32 2 -73 -20 l-55 -29 9 32 c20 68 -29 114 -87 84 -46 -24 -117
-103 -144 -160 -20 -42 -34 -57 -72 -75 -48 -24 -122 -32 -140 -14 -6 6 -14
32 -19 58 -11 57 -24 74 -55 74 -26 0 -34 -7 -113 -98 -30 -34 -56 -60 -58
-58 -8 7 57 272 84 341 36 97 44 106 142 184 116 92 151 125 207 196 66 83
114 189 127 280 13 87 4 122 -34 144 -41 23 -85 -6 -175 -115 -115 -138 -163
-216 -235 -375 -53 -118 -70 -147 -101 -169 -108 -78 -538 -269 -538 -239 0
20 39 85 67 110 15 14 82 63 148 110 129 90 337 287 396 374 42 63 78 151 79
191 0 17 -9 43 -21 58 -29 36 -89 36 -144 -1 -132 -88 -320 -272 -393 -383
-23 -36 -72 -122 -107 -191 l-64 -127 -163 -94 c-207 -120 -391 -219 -541
-291 -153 -73 -179 -92 -175 -126 2 -17 10 -27 24 -29 27 -4 426 196 687 345
54 30 101 53 104 49 4 -3 -2 -18 -13 -33 -14 -18 -63 -45 -148 -83 -142 -61
-224 -118 -250 -174 -12 -25 -18 -65 -19 -118 -2 -69 1 -81 18 -94 30 -23 68
-11 161 51 87 58 164 138 249 259 l51 71 164 62 c91 34 219 89 284 122 66 34
121 59 123 57 2 -1 -24 -99 -57 -216 -33 -117 -60 -224 -60 -237 0 -18 9 -28
36 -39 53 -22 83 -10 153 60 l63 64 44 -30 c36 -26 55 -32 118 -36 68 -4 80
-2 143 28 37 17 101 38 142 46 46 9 87 24 107 39 l32 24 18 -20 c31 -35 70
-49 131 -49 46 0 71 7 125 34 l67 35 3 -27 c2 -17 12 -31 28 -38 60 -28 65
-27 148 30 l80 54 11 -24 c30 -66 120 -79 274 -40 92 23 112 22 268 -4 77 -14
130 -12 229 5 47 8 86 15 88 15 1 0 2 -8 2 -19 0 -24 -17 -26 -300 -46 -118
-9 -368 -31 -555 -51 -187 -19 -430 -43 -540 -54 -110 -11 -279 -31 -375 -45
-96 -14 -293 -41 -437 -60 -145 -19 -347 -51 -450 -70 -104 -20 -307 -59 -452
-86 -362 -68 -501 -98 -535 -115 -16 -8 -44 -14 -62 -14 -89 0 -714 -150
-1119 -270 -110 -32 -236 -68 -280 -80 -143 -38 -528 -170 -595 -203 -70 -34
-96 -67 -79 -99 8 -15 22 -18 74 -18 59 0 356 54 680 125 424 92 1237 191
1845 225 816 45 2110 35 2710 -21 195 -18 424 -27 437 -17 7 5 16 7 21 4 5 -3
42 -8 83 -11 71 -5 73 -4 46 11 -27 15 -106 33 -177 40 -19 2 -82 9 -140 15
-79 9 -105 9 -108 0 -3 -9 -9 -8 -21 3 -10 9 -39 19 -64 22 -39 6 -47 4 -47
-10 0 -9 -4 -16 -10 -16 -5 0 -10 7 -10 15 0 11 -7 14 -25 9 -14 -3 -31 -1
-38 5 -16 13 -185 26 -552 43 -429 20 -1717 13 -2155 -12 -389 -23 -518 -33
-740 -60 -85 -10 -186 -22 -225 -25 -158 -15 -722 -108 -1020 -169 -66 -13
-121 -23 -123 -21 -10 9 636 205 928 280 113 30 257 67 320 83 184 48 771 169
1070 221 96 17 252 44 345 61 187 33 244 42 675 100 345 46 595 76 700 85 41
3 181 17 310 30 129 14 386 36 570 50 184 14 421 32 525 40 105 8 307 24 450
35 143 12 285 24 315 28 l55 7 0 45 0 44 -94 13 c-52 7 -116 20 -141 28 -45
15 -54 14 -251 -24 -112 -21 -224 -42 -249 -45 l-45 -7 28 29 c32 33 34 51 9
82 l-18 23 -157 -32 c-86 -17 -161 -31 -167 -31 -5 0 -10 11 -10 24 0 13 -8
33 -17 45 -15 18 -23 19 -56 12 -32 -8 -39 -6 -48 10 -14 27 -55 24 -130 -10
-62 -28 -278 -101 -299 -101 -6 0 16 26 49 58 43 43 61 68 66 95 8 43 -14 87
-44 87 -16 0 -129 -65 -279 -160 -29 -18 -55 -31 -57 -28 -3 3 11 29 31 59 95
138 116 171 172 274 34 61 75 144 93 185 44 103 189 490 189 505 0 11 -41 55
-51 55 -2 0 -20 -8 -39 -17z m-1534 -200 c-17 -71 -64 -142 -155 -237 -98
-101 -293 -255 -299 -237 -8 25 98 180 188 275 89 93 244 226 263 226 5 0 6
-12 3 -27z m384 -44 c-22 -83 -78 -172 -155 -249 -41 -41 -75 -68 -75 -61 0
19 63 132 118 211 47 68 115 150 120 145 2 -2 -2 -23 -8 -46z m1036 -91 c-47
-122 -85 -203 -92 -196 -5 5 65 185 102 264 43 91 38 55 -10 -68z m-2236 -827
c0 -25 -175 -191 -201 -191 -5 0 -9 10 -9 23 0 43 35 81 121 129 93 53 89 51
89 39z" />
        <path d="M1157 2789 c-20 -22 -48 -73 -63 -112 -29 -72 -29 -73 -32 -339 -4
-294 2 -336 57 -453 27 -56 28 -65 20 -129 -5 -38 -11 -71 -13 -74 -3 -2 -1
-13 5 -24 9 -17 -8 -39 -128 -165 -395 -417 -634 -750 -733 -1022 -39 -107
-64 -249 -51 -285 26 -67 105 -10 315 224 126 140 260 315 287 375 20 42 26
119 9 113 -5 -1 -35 -40 -67 -85 -86 -123 -237 -304 -352 -423 l-102 -105 6
50 c25 199 339 685 642 995 102 104 112 112 107 83 -5 -26 -3 -33 10 -33 15 0
21 17 17 49 -2 7 2 10 8 7 5 -3 12 8 16 26 5 25 46 72 163 191 86 86 161 157
166 157 4 0 6 -9 3 -19 -3 -11 2 -29 10 -40 26 -38 96 -23 195 40 l48 31 47
-16 c25 -9 67 -16 91 -16 35 0 50 -5 69 -26 23 -25 29 -26 86 -21 72 6 237 57
319 98 68 34 78 35 78 9 0 -29 38 -125 62 -155 48 -61 164 -82 263 -48 93 31
218 185 250 308 32 126 12 219 -59 260 -34 20 -61 25 -153 31 -84 5 -113 10
-113 20 0 8 13 80 30 161 16 82 32 180 36 218 6 63 4 73 -16 98 -36 45 -65 34
-110 -41 -57 -94 -115 -234 -148 -355 -16 -60 -34 -112 -38 -117 -5 -5 -61
-16 -124 -25 -252 -35 -333 -60 -366 -110 -18 -28 -14 -39 39 -85 l28 -25 -30
-41 c-28 -38 -82 -74 -109 -74 -21 0 -22 20 -1 59 22 43 19 60 -20 95 -20 18
-21 18 -110 -63 -49 -44 -91 -81 -94 -81 -3 0 10 26 29 58 l35 57 -31 28 c-18
16 -36 27 -42 25 -14 -5 -172 -145 -302 -267 -60 -57 -111 -100 -113 -94 -2 5
5 31 17 57 15 35 28 50 54 61 48 20 50 29 16 62 l-30 29 15 85 c21 120 64 494
72 625 7 125 -3 172 -44 204 -43 34 -86 27 -126 -21z m59 -291 c-4 -117 -14
-265 -22 -328 -8 -63 -14 -120 -14 -128 0 -7 -4 -11 -9 -8 -36 23 -48 422 -17
561 21 94 31 115 53 115 14 0 15 -21 9 -212z m1329 -178 c-15 -62 -29 -89 -40
-79 -2 2 8 39 22 82 30 96 42 94 18 -3z m310 -182 c25 -20 27 -25 23 -87 -5
-84 -49 -181 -115 -252 -59 -63 -89 -79 -151 -79 -87 0 -119 45 -124 178 -3
60 -2 63 37 102 32 32 61 47 150 77 99 34 110 40 108 61 -4 30 34 30 72 0z
m-479 -19 c17 -28 -22 -38 -176 -45 -131 -6 -153 -4 -142 7 7 8 62 21 125 30
137 20 184 22 193 8z m-25 -143 c-29 -30 -228 -127 -236 -114 0 2 -8 26 -17
55 l-16 52 67 6 c36 4 93 10 126 15 104 13 102 14 76 -14z" />
    </g>
</svg>